<?xml version="1.0" encoding="utf-8"?>
<!-- Generator: Adobe Illustrator 21.1.0, SVG Export Plug-In . SVG Version: 6.00 Build 0)  -->
<svg version="1.1" id="Capa_1" xmlns="http://www.w3.org/2000/svg" xmlns:xlink="http://www.w3.org/1999/xlink" x="0px" y="0px"
	 viewBox="0 0 512 512" style="enable-background:new 0 0 512 512;" xml:space="preserve">
<style type="text/css">
	.st0{fill:#898989;}
</style>
<g>
	<path class="st0" d="M119.5,200.5c-2.2,0-4.1,1.5-4.7,3.6L17.1,448v8.5c0,6.3-0.4,8.5,4.8,8.5h381.9c9.9,0,18.6-6.6,20.9-15.5
		L512,209.1c0,0,0-5.3,0-8.5H119.5z"/>
	<path class="st0" d="M108.6,183.5h343.6h8.5V130c0-12.9-10.5-23.3-23.3-23.3H226.3l-42.7-59.7H23.3C10.5,46.9,0,57.4,0,70.2v356.7
		l87.7-228C90.1,190.1,98.8,183.5,108.6,183.5z"/>
</g>
</svg>
