<?xml version="1.0" encoding="utf-8"?>
<!-- Generator: Adobe Illustrator 21.1.0, SVG Export Plug-In . SVG Version: 6.00 Build 0)  -->
<svg version="1.1" id="Capa_1" xmlns="http://www.w3.org/2000/svg" xmlns:xlink="http://www.w3.org/1999/xlink" x="0px" y="0px"
	 viewBox="0 0 512 512" style="enable-background:new 0 0 512 512;" xml:space="preserve">
<style type="text/css">
	.st0{fill:#898989;}
</style>
<path class="st0" d="M495.8,144.3H16.2c-7.8,0-14.2-6.4-14.2-14.2V84.4c0-7.8,6.4-14.2,14.2-14.2h479.6c7.8,0,14.2,6.4,14.2,14.2
	v45.7C510,137.9,503.6,144.3,495.8,144.3z"/>
<path class="st0" d="M495.8,445.2H16.2C8.4,445.2,2,438.8,2,431v-45.7c0-7.8,6.4-14.2,14.2-14.2h479.6c7.8,0,14.2,6.4,14.2,14.2V431
	C510,438.8,503.6,445.2,495.8,445.2z"/>
<path class="st0" d="M495.8,344.9H16.2c-7.8,0-14.2-6.4-14.2-14.2V285c0-7.8,6.4-14.2,14.2-14.2h479.6c7.8,0,14.2,6.4,14.2,14.2
	v45.7C510,338.5,503.6,344.9,495.8,344.9z"/>
<path class="st0" d="M495.8,244.6H16.2c-7.8,0-14.2-6.4-14.2-14.2v-45.7c0-7.8,6.4-14.2,14.2-14.2h479.6c7.8,0,14.2,6.4,14.2,14.2
	v45.7C510,238.2,503.6,244.6,495.8,244.6z"/>
</svg>
