<?xml version="1.0" encoding="utf-8"?>
<!-- Generator: Adobe Illustrator 21.1.0, SVG Export Plug-In . SVG Version: 6.00 Build 0)  -->
<svg version="1.1" id="Capa_1" xmlns="http://www.w3.org/2000/svg" xmlns:xlink="http://www.w3.org/1999/xlink" x="0px" y="0px"
	 viewBox="0 0 512 512" style="enable-background:new 0 0 512 512;" xml:space="preserve">
<style type="text/css">
	.st0{fill:#898989;}
</style>
<path class="st0" d="M503.2,53H8.8C4,53,0,56.9,0,61.8v388.4c0,4.9,4,8.8,8.8,8.8h494.3c4.9,0,8.8-3.9,8.8-8.8V61.8
	C512,56.9,508,53,503.2,53z M141.2,150.1c27.1,0,49.2,22.1,49.2,49.2c0,27.1-22.1,49.2-49.2,49.2s-49.2-22.1-49.2-49.2
	C92.1,172.1,114.1,150.1,141.2,150.1z M465.5,314.9c-3.3,3.6-8.9,3.8-12.5,0.5l-99.4-91.1l-81,88.8l42.4,42.4c3.5,3.5,3.5,9,0,12.5
	c-3.5,3.5-9,3.5-12.5,0l-90.9-90.9l-144,126.8c-1.7,1.5-3.8,2.2-5.8,2.2c-2.4,0-4.9-1-6.6-3c-3.2-3.7-2.9-9.2,0.8-12.5l150.2-132.3
	c3.5-3.1,8.8-2.9,12.1,0.4l41.9,41.9l86.5-94.7c1.6-1.7,3.8-2.8,6.1-2.9c2.3-0.1,4.6,0.7,6.4,2.3L465,302.5
	C468.6,305.8,468.8,311.3,465.5,314.9z"/>
</svg>
