<?xml version="1.0" encoding="utf-8"?>
<!-- Generator: Adobe Illustrator 21.1.0, SVG Export Plug-In . SVG Version: 6.00 Build 0)  -->
<svg version="1.1" id="Capa_1" xmlns="http://www.w3.org/2000/svg" xmlns:xlink="http://www.w3.org/1999/xlink" x="0px" y="0px"
	 viewBox="0 0 512 512" style="enable-background:new 0 0 512 512;" xml:space="preserve">
<style type="text/css">
	.st0{fill:#333333;}
</style>
<g>
	<path class="st0" d="M256,0C114.8,0,0,114.8,0,256s114.8,256,256,256s256-114.8,256-256S397.2,0,256,0z M398.7,170.6L241.2,347.9
		c-3.9,4.4-9.3,6.6-14.7,6.6c-4.3,0-8.7-1.4-12.3-4.3l-98.5-78.8c-8.5-6.8-9.9-19.2-3.1-27.7c6.8-8.5,19.2-9.9,27.7-3.1l83.9,67.1
		l145.1-163.3c7.2-8.1,19.7-8.9,27.8-1.6C405.2,150,405.9,162.5,398.7,170.6z"/>
</g>
</svg>
