<?xml version="1.0" encoding="utf-8"?>
<!-- Generator: Adobe Illustrator 21.1.0, SVG Export Plug-In . SVG Version: 6.00 Build 0)  -->
<svg version="1.1" id="Capa_1" xmlns="http://www.w3.org/2000/svg" xmlns:xlink="http://www.w3.org/1999/xlink" x="0px" y="0px"
	 viewBox="0 0 512 512" style="enable-background:new 0 0 512 512;" xml:space="preserve">
<style type="text/css">
	.st0{fill:#898989;}
</style>
<path class="st0" d="M95.8,170.2H16.4c-7.8,0-14.2-6.4-14.2-14.2V76.6c0-7.8,6.4-14.2,14.2-14.2h79.5c7.8,0,14.2,6.4,14.2,14.2V156
	C110,163.8,103.6,170.2,95.8,170.2z"/>
<path class="st0" d="M228,170.2h-79.5c-7.8,0-14.2-6.4-14.2-14.2V76.6c0-7.8,6.4-14.2,14.2-14.2H228c7.8,0,14.2,6.4,14.2,14.2V156
	C242.2,163.8,235.8,170.2,228,170.2z"/>
<path class="st0" d="M360.2,170.2h-79.5c-7.8,0-14.2-6.4-14.2-14.2V76.6c0-7.8,6.4-14.2,14.2-14.2h79.5c7.8,0,14.2,6.4,14.2,14.2
	V156C374.3,163.8,368,170.2,360.2,170.2z"/>
<path class="st0" d="M95.8,302.4H16.4c-7.8,0-14.2-6.4-14.2-14.2v-79.5c0-7.8,6.4-14.2,14.2-14.2h79.5c7.8,0,14.2,6.4,14.2,14.2
	v79.5C110,296,103.6,302.4,95.8,302.4z"/>
<path class="st0" d="M228,302.4h-79.5c-7.8,0-14.2-6.4-14.2-14.2v-79.5c0-7.8,6.4-14.2,14.2-14.2H228c7.8,0,14.2,6.4,14.2,14.2v79.5
	C242.2,296,235.8,302.4,228,302.4z"/>
<path class="st0" d="M360.2,302.4h-79.5c-7.8,0-14.2-6.4-14.2-14.2v-79.5c0-7.8,6.4-14.2,14.2-14.2h79.5c7.8,0,14.2,6.4,14.2,14.2
	v79.5C374.3,296,368,302.4,360.2,302.4z"/>
<path class="st0" d="M95.8,434.5H16.4c-7.8,0-14.2-6.4-14.2-14.2v-79.5c0-7.8,6.4-14.2,14.2-14.2h79.5c7.8,0,14.2,6.4,14.2,14.2
	v79.5C110,428.2,103.6,434.5,95.8,434.5z"/>
<path class="st0" d="M228,434.5h-79.5c-7.8,0-14.2-6.4-14.2-14.2v-79.5c0-7.8,6.4-14.2,14.2-14.2H228c7.8,0,14.2,6.4,14.2,14.2v79.5
	C242.2,428.2,235.8,434.5,228,434.5z"/>
<path class="st0" d="M360.2,434.5h-79.5c-7.8,0-14.2-6.4-14.2-14.2v-79.5c0-7.8,6.4-14.2,14.2-14.2h79.5c7.8,0,14.2,6.4,14.2,14.2
	v79.5C374.3,428.2,368,434.5,360.2,434.5z"/>
<path class="st0" d="M495.8,170.2h-79.5c-7.8,0-14.2-6.4-14.2-14.2V76.6c0-7.8,6.4-14.2,14.2-14.2h79.5c7.8,0,14.2,6.4,14.2,14.2
	V156C510,163.8,503.6,170.2,495.8,170.2z"/>
<path class="st0" d="M495.8,302.4h-79.5c-7.8,0-14.2-6.4-14.2-14.2v-79.5c0-7.8,6.4-14.2,14.2-14.2h79.5c7.8,0,14.2,6.4,14.2,14.2
	v79.5C510,296,503.6,302.4,495.8,302.4z"/>
<path class="st0" d="M495.8,434.5h-79.5c-7.8,0-14.2-6.4-14.2-14.2v-79.5c0-7.8,6.4-14.2,14.2-14.2h79.5c7.8,0,14.2,6.4,14.2,14.2
	v79.5C510,428.2,503.6,434.5,495.8,434.5z"/>
</svg>
