<?xml version="1.0" encoding="utf-8"?>
<!-- Generator: Adobe Illustrator 21.1.0, SVG Export Plug-In . SVG Version: 6.00 Build 0)  -->
<svg version="1.1" id="Capa_1" xmlns="http://www.w3.org/2000/svg" xmlns:xlink="http://www.w3.org/1999/xlink" x="0px" y="0px"
	 viewBox="0 0 512 512" style="enable-background:new 0 0 512 512;" xml:space="preserve">
<style type="text/css">
	.st0{fill:#898989;}
</style>
<g>
	<path class="st0" d="M476.6,35.4c-47.2-47.2-124-47.2-171.2,0L219.8,121c-7.3,7.3-7.3,19.1,0,26.3c7.3,7.3,19.1,7.3,26.3,0
		l85.6-85.6C347.5,46,368.5,37.3,391,37.3c22.5,0,43.5,8.7,59.3,24.4s24.4,36.8,24.4,59.3c0,22.5-8.7,43.5-24.4,59.3l-111.9,112
		c-32.7,32.7-85.9,32.7-118.6,0c-7.3-7.3-19.1-7.3-26.3,0s-7.3,19.1,0,26.3C217,342.2,248,354,279,354s62-11.8,85.6-35.4l112-112
		c22.8-22.8,35.3-53.2,35.3-85.6C512,88.6,499.4,58.2,476.6,35.4z"/>
	<path class="st0" d="M252.7,377.9l-72.4,72.4c-15.7,15.8-36.8,24.4-59.3,24.4c-22.5,0-43.5-8.7-59.3-24.4
		c-32.7-32.7-32.7-85.9,0-118.5l105.4-105.4c15.7-15.7,36.8-24.4,59.3-24.4c22.5,0,43.5,8.7,59.3,24.4c7.3,7.3,19.1,7.3,26.3,0
		c7.3-7.3,7.3-19.1,0-26.3c-47.2-47.2-124-47.2-171.2,0L35.4,305.4C12.6,328.2,0,358.6,0,391c0,32.4,12.6,62.8,35.3,85.6
		C58.2,499.4,88.6,512,121,512c32.4,0,62.8-12.6,85.6-35.3l72.4-72.4c7.3-7.3,7.3-19.1,0-26.3C271.8,370.6,260,370.6,252.7,377.9z"
		/>
</g>
</svg>
