<?xml version="1.0" encoding="utf-8"?>
<!-- Generator: Adobe Illustrator 21.1.0, SVG Export Plug-In . SVG Version: 6.00 Build 0)  -->
<svg version="1.1" id="Layer_1" xmlns="http://www.w3.org/2000/svg" xmlns:xlink="http://www.w3.org/1999/xlink" x="0px" y="0px"
	 viewBox="0 0 512 512" style="enable-background:new 0 0 512 512;" xml:space="preserve">
<style type="text/css">
	.st0{fill:#898989;}
</style>
<path class="st0" d="M290.7,256L504.8,41.9c9.6-9.6,9.6-25.1,0-34.7s-25.1-9.6-34.7,0L256,221.3L41.9,7.2c-9.6-9.6-25.1-9.6-34.7,0
	s-9.6,25.1,0,34.7L221.3,256L7.2,470.1c-9.6,9.6-9.6,25.1,0,34.7c4.8,4.8,11.1,7.2,17.3,7.2s12.6-2.4,17.3-7.2L256,290.7
	l214.1,214.1c4.8,4.8,11.1,7.2,17.3,7.2c6.3,0,12.6-2.4,17.3-7.2c9.6-9.6,9.6-25.1,0-34.7L290.7,256z"/>
</svg>
