<?xml version="1.0" encoding="utf-8"?>
<!-- Generator: Adobe Illustrator 21.1.0, SVG Export Plug-In . SVG Version: 6.00 Build 0)  -->
<svg version="1.1" id="Capa_1" xmlns="http://www.w3.org/2000/svg" xmlns:xlink="http://www.w3.org/1999/xlink" x="0px" y="0px"
	 viewBox="0 0 512 512" style="enable-background:new 0 0 512 512;" xml:space="preserve">
<style type="text/css">
	.st0{fill:#898989;}
</style>
<path class="st0" d="M503.2,53H8.8C4,53,0,56.9,0,61.8v388.4c0,4.9,4,8.8,8.8,8.8h494.3c4.9,0,8.8-3.9,8.8-8.8V61.8
	C512,56.9,508,53,503.2,53z M88.3,441.4H17.7v-79.4h70.6V441.4z M88.3,344.3H17.7v-79.4h70.6V344.3z M88.3,247.2H17.7v-79.4h70.6
	V247.2z M88.3,150.1H17.7V70.6h70.6V150.1z M322.5,263.5l-97.1,61.8c-1.4,0.9-3.1,1.4-4.7,1.4c-1.5,0-2.9-0.4-4.2-1.1
	c-2.8-1.6-4.6-4.5-4.6-7.7V194.2c0-3.2,1.8-6.2,4.6-7.7c2.8-1.5,6.3-1.4,9,0.3l97.1,61.8c2.5,1.6,4.1,4.4,4.1,7.5
	C326.6,259,325.1,261.8,322.5,263.5z M494.3,441.4h-70.6v-79.4h70.6V441.4z M494.3,344.3h-70.6v-79.4h70.6V344.3z M494.3,247.2
	h-70.6v-79.4h70.6V247.2z M494.3,150.1h-70.6V70.6h70.6V150.1z"/>
</svg>
